<svg width="40" height="40" viewBox="0 0 40 40" fill="none" xmlns="http://www.w3.org/2000/svg">
<g id="Bell">
<path id="Vector" d="M8.7813 15.9709C8.77922 14.5144 9.07034 13.072 9.6379 11.7266C10.2055 10.3812 11.0383 9.15941 12.0883 8.13169C13.1383 7.10396 14.3849 6.29056 15.7562 5.73835C17.1274 5.18613 18.5963 4.90601 20.0782 4.91411C26.2657 4.96018 31.2188 10.0125 31.2188 16.1091V17.1994C31.2188 22.6971 32.3907 25.8913 33.4219 27.6419C33.5314 27.8284 33.5892 28.0398 33.5894 28.2551C33.5896 28.4704 33.5322 28.682 33.423 28.8686C33.3138 29.0552 33.1567 29.2104 32.9673 29.3185C32.7778 29.4267 32.5628 29.484 32.3438 29.4847H7.6563C7.43726 29.484 7.22226 29.4267 7.03285 29.3185C6.84343 29.2104 6.68626 29.0552 6.57707 28.8686C6.46788 28.682 6.41051 28.4704 6.41071 28.2551C6.4109 28.0398 6.46865 27.8284 6.57818 27.6419C7.60943 25.8913 8.7813 22.6971 8.7813 17.1994V15.9709Z" stroke="#616161" stroke-width="1.5" stroke-linecap="round" stroke-linejoin="round"/>
<path id="Vector_2" d="M15 29.4847V30.7133C15 32.0166 15.5268 33.2665 16.4645 34.1881C17.4021 35.1097 18.6739 35.6274 20 35.6274C21.3261 35.6274 22.5979 35.1097 23.5355 34.1881C24.4732 33.2665 25 32.0166 25 30.7133V29.4847" stroke="#616161" stroke-width="1.5" stroke-linecap="round" stroke-linejoin="round"/>
</g>
</svg>
