<svg width="24" height="24" viewBox="0 0 24 24" fill="none" xmlns="http://www.w3.org/2000/svg">
<g id="Info Square">
<g id="Iconly/Broken/Info-Square">
<g id="Info-Square">
<path id="Vector" d="M15.7472 1.9998C19.6082 1.9998 22.0002 4.3928 22.0002 8.2558V15.7558C22.0002 19.6078 19.6082 21.9998 15.7472 21.9998H8.24425C4.39225 21.9998 2.00025 19.6078 2.00125 15.7528C2.00125 15.3308 2.34325 14.9878 2.76625 14.9878C3.18825 14.9878 3.53125 15.3308 3.53125 15.7528C3.53125 18.7868 5.20225 20.4668 8.25425 20.4668H15.7472C18.7902 20.4668 20.4702 18.7958 20.4702 15.7528V8.2528C20.4702 5.2098 18.8002 3.5298 15.7472 3.5298H8.25325C5.21025 3.5298 3.53025 5.2098 3.53025 8.2528V10.5838C3.53025 11.0018 3.19125 11.3398 2.77425 11.3398H2.76325C2.34125 11.3398 1.99925 10.9968 2.00025 10.5748V8.2528C2.00025 4.3928 4.41025 1.9998 8.25425 1.9998H15.7472ZM11.9947 10.6257C12.4087 10.6257 12.7447 10.9617 12.7447 11.3757V15.7957C12.7447 16.2097 12.4087 16.5457 11.9947 16.5457C11.5807 16.5457 11.2447 16.2097 11.2447 15.7957V11.3757C11.2447 10.9617 11.5807 10.6257 11.9947 10.6257ZM12.005 7.4539C12.419 7.4539 12.755 7.7899 12.755 8.2039C12.755 8.6179 12.419 8.9539 12.005 8.9539H11.995C11.581 8.9539 11.25 8.6179 11.25 8.2039C11.25 7.7899 11.591 7.4539 12.005 7.4539Z" fill="#6C7894"/>
</g>
</g>
</g>
</svg>
