<svg width="24" height="24" viewBox="0 0 24 24" fill="none" xmlns="http://www.w3.org/2000/svg">
<rect width="24" height="24" fill="#1E1E1E"/>
<g id="Dashboard-Home" clip-path="url(#clip0_125_1022)">
<rect width="1920" height="1080" transform="translate(-49 -734)" fill="white"/>
<g id="Frame 48097135">
<g id="Rectangle 1" filter="url(#filter0_d_125_1022)">
<rect x="-24" y="-593" width="250" height="862" rx="20" fill="white"/>
</g>
<g id="Frame 48097134">
<g id="Frame 48097133">
<g id="Frame 4">
<g id="Group 48097129">
<g id="Logout">
<g id="Iconly/Broken/Logout">
<g id="Logout_2">
<path id="Vector" d="M14.016 14.8441C14.4092 14.8441 14.7284 15.1391 14.7284 15.5025V16.3071C14.7284 18.3985 12.8872 20.1 10.6231 20.1H6.11357C3.84583 20.1 2 18.3942 2 16.2977C2 15.9343 2.3192 15.6401 2.71243 15.6401C3.10565 15.6401 3.42485 15.9343 3.42485 16.2977C3.42485 17.6691 4.63135 18.7832 6.11357 18.7832H10.6231C12.1017 18.7832 13.3035 17.6726 13.3035 16.3071V15.5025C13.3035 15.1391 13.6227 14.8441 14.016 14.8441ZM20.2874 10.8909C20.576 10.8909 20.836 11.0517 20.9461 11.2988C21.0562 11.545 20.9942 11.8289 20.7907 12.017L18.0872 14.5043C17.9475 14.6317 17.7661 14.6967 17.5838 14.6967C17.4016 14.6967 17.2184 14.6317 17.0796 14.5026C16.802 14.2444 16.802 13.828 17.0814 13.5715L18.5627 12.2085H9.17164C8.77842 12.2085 8.45829 11.9136 8.45829 11.5502C8.45829 11.1868 8.77842 10.8909 9.17164 10.8909H20.2874ZM10.6141 3C12.8827 3 14.7286 4.70579 14.7286 6.80234V7.59837C14.7286 7.96091 14.4094 8.2559 14.0161 8.2559C13.6229 8.2559 13.3037 7.96091 13.3037 7.59837V6.80234C13.3037 5.43086 12.0972 4.31675 10.6141 4.31675H6.10543C4.62691 4.31675 3.42504 5.4283 3.42504 6.79293V13.304C3.42504 13.6674 3.10584 13.9624 2.71261 13.9624C2.31939 13.9624 2.00019 13.6674 2.00019 13.304V6.79293C2.00019 4.70152 3.84139 3 6.10543 3H10.6141ZM17.0777 8.60039C17.3553 8.34046 17.805 8.33875 18.0853 8.59526L18.7663 9.21772C19.0466 9.47423 19.0485 9.89064 18.7718 10.1489C18.6321 10.2788 18.4489 10.3447 18.2657 10.3447C18.0844 10.3447 17.903 10.2805 17.7643 10.154L17.0824 9.53067C16.8029 9.27501 16.8011 8.85775 17.0777 8.60039Z" fill="#FF0707"/>
</g>
</g>
</g>
</g>
</g>
</g>
</g>
</g>
</g>
<defs>
<filter id="filter0_d_125_1022" x="-28" y="-593" width="258" height="870" filterUnits="userSpaceOnUse" color-interpolation-filters="sRGB">
<feFlood flood-opacity="0" result="BackgroundImageFix"/>
<feColorMatrix in="SourceAlpha" type="matrix" values="0 0 0 0 0 0 0 0 0 0 0 0 0 0 0 0 0 0 127 0" result="hardAlpha"/>
<feOffset dy="4"/>
<feGaussianBlur stdDeviation="2"/>
<feComposite in2="hardAlpha" operator="out"/>
<feColorMatrix type="matrix" values="0 0 0 0 0 0 0 0 0 0 0 0 0 0 0 0 0 0 0.25 0"/>
<feBlend mode="normal" in2="BackgroundImageFix" result="effect1_dropShadow_125_1022"/>
<feBlend mode="normal" in="SourceGraphic" in2="effect1_dropShadow_125_1022" result="shape"/>
</filter>
<clipPath id="clip0_125_1022">
<rect width="1920" height="1080" fill="white" transform="translate(-49 -734)"/>
</clipPath>
</defs>
</svg>
