<svg width="116" height="125" viewBox="0 0 116 125" fill="none" xmlns="http://www.w3.org/2000/svg">
<path d="M56.1477 2.32876C56.3629 0.37316 58.9926 0.37316 59.2078 2.32876L61.0116 18.7345C63.3409 39.9187 78.8182 56.6208 98.4487 59.1344L113.651 61.081C115.464 61.3132 115.464 64.151 113.651 64.3832L98.4487 66.3298C78.8182 68.8434 63.3409 85.5455 61.0116 106.73L59.2078 123.135C58.9926 125.091 56.3629 125.091 56.1477 123.135L54.3439 106.73C52.0146 85.5455 36.5373 68.8434 16.9066 66.3298L1.70399 64.3832C-0.108199 64.151 -0.108199 61.3132 1.70399 61.081L16.9066 59.1344C36.5373 56.6208 52.0146 39.9187 54.3439 18.7345L56.1477 2.32876Z" fill="#333333"/>
</svg>
