<svg width="103" height="103" viewBox="0 0 103 103" fill="none" xmlns="http://www.w3.org/2000/svg">
<path d="M57.0792 34.8068L62.7442 46.1367C63.5167 47.6817 65.5767 49.2267 67.2933 49.4842L77.5504 51.2009C84.1167 52.3167 85.6617 57.0375 80.9408 61.7584L72.9583 69.7838C71.6279 71.1142 70.8554 73.7321 71.2846 75.6204L73.5592 85.5342C75.3617 93.345 71.1987 96.3921 64.2892 92.315L54.6758 86.6071C52.9162 85.5771 50.0837 85.5771 48.3242 86.6071L38.6678 92.2721C31.7582 96.3492 27.5953 93.3021 29.3978 85.4913L31.6724 75.5775C32.1015 73.7321 31.329 71.1142 29.9986 69.7409L22.059 61.8013C17.3382 57.0804 18.8832 52.3167 25.4494 51.2438L35.7065 49.5271C37.4232 49.2267 39.4832 47.7246 40.2557 46.1796L45.9208 34.8497C48.9679 28.6697 54.0321 28.6697 57.0792 34.8068Z" fill="#6C7894"/>
<path d="M25.75 41.8438C23.9904 41.8438 22.5312 40.3846 22.5312 38.625V8.58334C22.5312 6.82376 23.9904 5.36459 25.75 5.36459C27.5096 5.36459 28.9688 6.82376 28.9688 8.58334V38.625C28.9688 40.3846 27.5096 41.8438 25.75 41.8438Z" fill="#6C7894"/>
<path d="M77.25 41.8438C75.4904 41.8438 74.0312 40.3846 74.0312 38.625V8.58334C74.0312 6.82376 75.4904 5.36459 77.25 5.36459C79.0096 5.36459 80.4688 6.82376 80.4688 8.58334V38.625C80.4688 40.3846 79.0096 41.8438 77.25 41.8438Z" fill="#6C7894"/>
<path d="M51.5 20.3854C49.7404 20.3854 48.2812 18.9263 48.2812 17.1667V8.58334C48.2812 6.82376 49.7404 5.36459 51.5 5.36459C53.2596 5.36459 54.7188 6.82376 54.7188 8.58334V17.1667C54.7188 18.9263 53.2596 20.3854 51.5 20.3854Z" fill="#6C7894"/>
</svg>
